<?xml version="1.0" encoding="UTF-8" standalone="no"?>
<!-- Created with Inkscape (http://www.inkscape.org/) -->

<svg
   xmlns:dc="http://purl.org/dc/elements/1.1/"
   xmlns:cc="http://creativecommons.org/ns#"
   xmlns:rdf="http://www.w3.org/1999/02/22-rdf-syntax-ns#"
   xmlns:svg="http://www.w3.org/2000/svg"
   xmlns="http://www.w3.org/2000/svg"
   xmlns:sodipodi="http://sodipodi.sourceforge.net/DTD/sodipodi-0.dtd"
   xmlns:inkscape="http://www.inkscape.org/namespaces/inkscape"
   width="524.40942"
   height="372.04724"
   id="svg9127"
   version="1.1"
   inkscape:version="0.48.3.1 r9886"
   sodipodi:docname="umlauf03.svg">
  <sodipodi:namedview
     id="base"
     pagecolor="#ffffff"
     bordercolor="#666666"
     borderopacity="1.0"
     inkscape:pageopacity="0.0"
     inkscape:pageshadow="2"
     inkscape:zoom="1.0098297"
     inkscape:cx="169.26532"
     inkscape:cy="255.54807"
     inkscape:document-units="px"
     inkscape:current-layer="layer1"
     showgrid="false"
     inkscape:snap-bbox="false"
     inkscape:bbox-paths="true"
     inkscape:object-paths="true"
     inkscape:snap-intersection-paths="true"
     inkscape:object-nodes="true"
     inkscape:snap-smooth-nodes="true"
     inkscape:snap-midpoints="true"
     inkscape:snap-object-midpoints="true"
     inkscape:snap-center="true"
     inkscape:window-width="1400"
     inkscape:window-height="1002"
     inkscape:window-x="0"
     inkscape:window-y="23"
     inkscape:window-maximized="1"
     inkscape:snap-global="false" />
  <defs
     id="defs9129">
    <marker
       style="overflow:visible"
       id="Arrow1Lstart"
       refX="0.0"
       refY="0.0"
       orient="auto"
       inkscape:stockid="Arrow1Lstart">
      <path
         transform="scale(0.8) translate(12.5,0)"
         style="fill-rule:evenodd;stroke:#000000;stroke-width:1.0pt"
         d="M 0.0,0.0 L 5.0,-5.0 L -12.5,0.0 L 5.0,5.0 L 0.0,0.0 z "
         id="path3759" />
    </marker>
    <marker
       style="overflow:visible;"
       id="Arrow1Lend"
       refX="0.0"
       refY="0.0"
       orient="auto"
       inkscape:stockid="Arrow1Lend">
      <path
         transform="scale(0.8) rotate(180) translate(12.5,0)"
         style="fill-rule:evenodd;stroke:#000000;stroke-width:1.0pt;"
         d="M 0.0,0.0 L 5.0,-5.0 L -12.5,0.0 L 5.0,5.0 L 0.0,0.0 z "
         id="path3762" />
    </marker>
    <marker
       style="overflow:visible"
       id="Arrow1Lstarta"
       refX="0.0"
       refY="0.0"
       orient="auto"
       inkscape:stockid="Arrow1Lstarta">
      <path
         transform="scale(0.8) translate(12.5,0)"
         style="stroke:#0000ff;stroke-width:1.0pt;fill:#0000ff;fill-rule:evenodd"
         d="M 0.0,0.0 L 5.0,-5.0 L -12.5,0.0 L 5.0,5.0 L 0.0,0.0 z "
         id="path10253" />
    </marker>
    <marker
       style="overflow:visible"
       id="Arrow1LstartN"
       refX="0.0"
       refY="0.0"
       orient="auto"
       inkscape:stockid="Arrow1LstartN">
      <path
         transform="scale(0.8) translate(12.5,0)"
         style="stroke:#ff0000;stroke-width:1.0pt;fill:#ff0000;fill-rule:evenodd"
         d="M 0.0,0.0 L 5.0,-5.0 L -12.5,0.0 L 5.0,5.0 L 0.0,0.0 z "
         id="path10289" />
    </marker>
    <marker
       style="overflow:visible"
       id="Arrow1Lstarta-2"
       refX="0"
       refY="0"
       orient="auto"
       inkscape:stockid="Arrow1Lstarta">
      <path
         transform="matrix(0.8,0,0,0.8,10,0)"
         style="fill:#0000ff;fill-rule:evenodd;stroke:#0000ff;stroke-width:1pt"
         d="M 0,0 5,-5 -12.5,0 5,5 0,0 z"
         id="path10253-7"
         inkscape:connector-curvature="0" />
    </marker>
    <marker
       style="overflow:visible"
       id="Arrow1LstartN-0"
       refX="0"
       refY="0"
       orient="auto"
       inkscape:stockid="Arrow1LstartN">
      <path
         transform="matrix(0.8,0,0,0.8,10,0)"
         style="fill:#ff0000;fill-rule:evenodd;stroke:#ff0000;stroke-width:1pt"
         d="M 0,0 5,-5 -12.5,0 5,5 0,0 z"
         id="path10289-9"
         inkscape:connector-curvature="0" />
    </marker>
    <marker
       style="overflow:visible;"
       id="Arrow1LendQ"
       refX="0.0"
       refY="0.0"
       orient="auto"
       inkscape:stockid="Arrow1LendQ">
      <path
         transform="scale(0.8) rotate(180) translate(12.5,0)"
         style="stroke:#c8c600;stroke-width:1.0pt;fill:#c8c600;fill-rule:evenodd"
         d="M 0.0,0.0 L 5.0,-5.0 L -12.5,0.0 L 5.0,5.0 L 0.0,0.0 z "
         id="path12296" />
    </marker>
    <marker
       style="overflow:visible"
       id="Arrow1LendQ-5"
       refX="0"
       refY="0"
       orient="auto"
       inkscape:stockid="Arrow1LendQ">
      <path
         transform="matrix(-0.8,0,0,-0.8,-10,0)"
         style="fill:#c8c600;fill-rule:evenodd;stroke:#c8c600;stroke-width:1pt"
         d="M 0,0 5,-5 -12.5,0 5,5 0,0 z"
         id="path12296-5"
         inkscape:connector-curvature="0" />
    </marker>
    <marker
       style="overflow:visible"
       id="Arrow1LendQ-3"
       refX="0"
       refY="0"
       orient="auto"
       inkscape:stockid="Arrow1LendQ">
      <path
         transform="matrix(-0.8,0,0,-0.8,-10,0)"
         style="fill:#c8c600;fill-rule:evenodd;stroke:#c8c600;stroke-width:1pt"
         d="M 0,0 5,-5 -12.5,0 5,5 0,0 z"
         id="path12296-54"
         inkscape:connector-curvature="0" />
    </marker>
    <marker
       style="overflow:visible"
       id="Arrow1LendQ-37"
       refX="0"
       refY="0"
       orient="auto"
       inkscape:stockid="Arrow1LendQ">
      <path
         transform="matrix(-0.8,0,0,-0.8,-10,0)"
         style="fill:#c8c600;fill-rule:evenodd;stroke:#c8c600;stroke-width:1pt"
         d="M 0,0 5,-5 -12.5,0 5,5 0,0 z"
         id="path12296-1"
         inkscape:connector-curvature="0" />
    </marker>
    <marker
       style="overflow:visible"
       id="Arrow1LendQ-9"
       refX="0"
       refY="0"
       orient="auto"
       inkscape:stockid="Arrow1LendQ">
      <path
         transform="matrix(-0.8,0,0,-0.8,-10,0)"
         style="fill:#c8c600;fill-rule:evenodd;stroke:#c8c600;stroke-width:1pt"
         d="M 0,0 5,-5 -12.5,0 5,5 0,0 z"
         id="path12296-9"
         inkscape:connector-curvature="0" />
    </marker>
    <marker
       style="overflow:visible"
       id="Arrow1LendQ-8"
       refX="0"
       refY="0"
       orient="auto"
       inkscape:stockid="Arrow1LendQ">
      <path
         transform="matrix(-0.8,0,0,-0.8,-10,0)"
         style="fill:#c8c600;fill-rule:evenodd;stroke:#c8c600;stroke-width:1pt"
         d="M 0,0 5,-5 -12.5,0 5,5 0,0 z"
         id="path12296-95"
         inkscape:connector-curvature="0" />
    </marker>
    <marker
       style="overflow:visible"
       id="Arrow1LendQ-34"
       refX="0"
       refY="0"
       orient="auto"
       inkscape:stockid="Arrow1LendQ">
      <path
         transform="matrix(-0.8,0,0,-0.8,-10,0)"
         style="fill:#c8c600;fill-rule:evenodd;stroke:#c8c600;stroke-width:1pt"
         d="M 0,0 5,-5 -12.5,0 5,5 0,0 z"
         id="path12296-6"
         inkscape:connector-curvature="0" />
    </marker>
    <marker
       style="overflow:visible;"
       id="Arrow1LendQJ"
       refX="0.0"
       refY="0.0"
       orient="auto"
       inkscape:stockid="Arrow1LendQJ">
      <path
         transform="scale(0.8) rotate(180) translate(12.5,0)"
         style="fill-rule:evenodd;stroke:#00c800;stroke-width:1.0pt;fill:#00c800"
         d="M 0.0,0.0 L 5.0,-5.0 L -12.5,0.0 L 5.0,5.0 L 0.0,0.0 z "
         id="path12518" />
    </marker>
    <marker
       style="overflow:visible"
       id="Arrow1LendQJ-2"
       refX="0"
       refY="0"
       orient="auto"
       inkscape:stockid="Arrow1LendQJ">
      <path
         inkscape:connector-curvature="0"
         transform="matrix(-0.8,0,0,-0.8,-10,0)"
         style="fill:#00c800;fill-rule:evenodd;stroke:#00c800;stroke-width:1pt"
         d="M 0,0 5,-5 -12.5,0 5,5 0,0 z"
         id="path12518-1" />
    </marker>
    <marker
       style="overflow:visible"
       id="Arrow1LendQJ-4"
       refX="0"
       refY="0"
       orient="auto"
       inkscape:stockid="Arrow1LendQJ">
      <path
         inkscape:connector-curvature="0"
         transform="matrix(-0.8,0,0,-0.8,-10,0)"
         style="fill:#00c800;fill-rule:evenodd;stroke:#00c800;stroke-width:1pt"
         d="M 0,0 5,-5 -12.5,0 5,5 0,0 z"
         id="path12518-7" />
    </marker>
    <marker
       style="overflow:visible"
       id="Arrow1LendQJ-27"
       refX="0"
       refY="0"
       orient="auto"
       inkscape:stockid="Arrow1LendQJ">
      <path
         inkscape:connector-curvature="0"
         transform="matrix(-0.8,0,0,-0.8,-10,0)"
         style="fill:#00c800;fill-rule:evenodd;stroke:#00c800;stroke-width:1pt"
         d="M 0,0 5,-5 -12.5,0 5,5 0,0 z"
         id="path12518-9" />
    </marker>
    <marker
       style="overflow:visible"
       id="Arrow1LendQJ-6"
       refX="0"
       refY="0"
       orient="auto"
       inkscape:stockid="Arrow1LendQJ">
      <path
         inkscape:connector-curvature="0"
         transform="matrix(-0.8,0,0,-0.8,-10,0)"
         style="fill:#00c800;fill-rule:evenodd;stroke:#00c800;stroke-width:1pt"
         d="M 0,0 5,-5 -12.5,0 5,5 0,0 z"
         id="path12518-3" />
    </marker>
    <marker
       style="overflow:visible"
       id="Arrow1LendQJ-25"
       refX="0"
       refY="0"
       orient="auto"
       inkscape:stockid="Arrow1LendQJ">
      <path
         inkscape:connector-curvature="0"
         transform="matrix(-0.8,0,0,-0.8,-10,0)"
         style="fill:#00c800;fill-rule:evenodd;stroke:#00c800;stroke-width:1pt"
         d="M 0,0 5,-5 -12.5,0 5,5 0,0 z"
         id="path12518-71" />
    </marker>
    <marker
       style="overflow:visible"
       id="Arrow1LendQJ-7"
       refX="0"
       refY="0"
       orient="auto"
       inkscape:stockid="Arrow1LendQJ">
      <path
         inkscape:connector-curvature="0"
         transform="matrix(-0.8,0,0,-0.8,-10,0)"
         style="fill:#00c800;fill-rule:evenodd;stroke:#00c800;stroke-width:1pt"
         d="M 0,0 5,-5 -12.5,0 5,5 0,0 z"
         id="path12518-15" />
    </marker>
  </defs>
  <metadata
     id="metadata9132">
    <rdf:RDF>
      <cc:Work
         rdf:about="">
        <dc:format>image/svg+xml</dc:format>
        <dc:type
           rdf:resource="http://purl.org/dc/dcmitype/StillImage" />
        <dc:title />
      </cc:Work>
    </rdf:RDF>
  </metadata>
  <g
     transform="translate(0,-680.31478)"
     id="layer1"
     inkscape:groupmode="layer"
     inkscape:label="Layer 1">
    <path
       inkscape:connector-curvature="0"
       id="path9135-8-8"
       d="m 330.27132,729.69566 1.46875,1.1875 -31.34375,39.09375 c 22.57405,8.87618 43.60964,22.23846 54.21875,41.59375 20.5493,37.4903 26.69115,96.41985 -5,126.34375 -40.7044,38.4345 -116.00207,14.96425 -173.25,7.40625 -25.19606,-3.32645 -55.51784,-4.53197 -76.71875,-16.78125 l -36.96875,41.5 c 0.12826,0.13104 0.24593,0.27614 0.375,0.40625 29.11981,29.35634 78.33006,21.73144 118.25,20.68754 71.9142,-1.88064 169.45346,14.6874 211.0625,-48.37504 32.3955,-49.0983 12.06139,-130.737 -21.3125,-179.0625 -10.25706,-14.85221 -24.60133,-25.89906 -40.78125,-34 z"
       style="fill:#ffff00;fill-opacity:0.51310862;stroke:none;stroke-width:1;marker-mid:none" />
    <path
       inkscape:connector-curvature="0"
       id="path9135-8-8-5"
       d="m 235.32463,708.98279 c -45.67046,0.3468 -92.55925,14.34555 -131.25,39.28125 -30.82395,19.8656 -61.851948,50.1773 -70.531248,87.6563 -10.28106,44.3953 -2.54617,102.4828 28.499998,133.7812 0.10458,0.1054 0.2074,0.208 0.3125,0.3125 l 35.9375,-42.4375 c -5.39551,-3.1637 -10.20328,-7.0366 -14.15625,-11.875 -20.78666,-25.4424 -19.82744,-66.5091 -6.25,-95.9062 11.46689,-24.8277 39.75582,-41.9183 66.625,-51.8438 23.73357,-8.7672 50.0556,-13.30745 76.1875,-13.34375 17.87972,-0.025 35.67742,2.0525 52.53125,6.31255 8.81257,2.2273 17.92567,5.0746 26.78125,8.5937 l 31.75,-39.25 c -21.99304,-11.57122 -47.68085,-17.50868 -71.25,-20.03125 -8.31305,-0.8898 -16.73001,-1.3142 -25.1875,-1.25 z M 64.23088,971.82654 c 1.13528,1.0392 2.3112,2.0293 3.5,2.9688 l -3.5,-2.9688 z"
       style="fill:#00ff00;fill-opacity:0.60674157;stroke:none;stroke-width:1;marker-mid:none" />
    <path
       sodipodi:nodetypes="aaaaaaaa"
       inkscape:connector-curvature="0"
       id="path9135"
       d="M 19.682782,798.64484 C 35.685956,756.46352 75.189736,727.38108 112.6907,710.512 c 55.78888,-25.09556 121.71957,-29.74911 179.62154,-11.92775 43.32267,13.33406 91.70474,39.30715 112.1908,84.81957 28.68038,63.71719 37.25534,163.84189 -6.9756,214.69955 -56.81059,65.32203 -161.92037,25.43583 -241.82058,12.59043 C 111.35385,1003.5633 55.613779,1002.2156 28.402273,961.65748 -0.60938214,918.41632 0.72627285,848.6106 19.682782,798.64484 z"
       style="fill:none;stroke:#000000;stroke-width:1px;stroke-linecap:butt;stroke-linejoin:miter;stroke-opacity:1" />
    <path
       sodipodi:nodetypes="aaaaaaaa"
       inkscape:connector-curvature="0"
       id="path9135-6"
       d="m 249.67278,805.08579 c 10.99203,4.90503 18.26601,16.35509 22.32917,27.13048 6.04463,16.03017 6.5708,34.75521 1.23491,51.00792 -3.99237,12.16039 -11.38373,25.64375 -23.64773,31.05029 -17.16951,7.56911 -43.75915,9.12127 -56.74535,-3.85935 -16.67959,-16.67242 -4.99918,-46.10998 -0.74479,-68.64044 2.36159,-12.50678 3.31464,-28.29126 14.33941,-35.64716 11.75411,-7.84254 30.21383,-6.85196 43.23438,-1.04174 z"
       style="fill:none;stroke:#000000;stroke-width:0.99999988px;stroke-linecap:butt;stroke-linejoin:miter;stroke-opacity:1" />
    <path
       sodipodi:nodetypes="aaaaaaaa"
       inkscape:connector-curvature="0"
       id="path9135-9"
       d="m 78.84273,820.4484 c 11.46689,-24.82757 39.77036,-41.93054 66.63953,-51.85604 39.97233,-14.76585 87.21119,-17.50395 128.69754,-7.01812 31.04039,7.84556 65.70579,23.12775 80.38391,49.90657 20.5493,37.49024 26.69319,96.40212 -4.99796,126.32602 -40.7044,38.43451 -116.01479,14.96605 -173.26272,7.40801 C 144.52441,941.01933 104.58705,940.22636 85.0902,916.3626 64.30354,890.92014 65.26529,849.84565 78.84273,820.4484 z"
       style="fill:none;stroke:#ff0000;stroke-width:1px;stroke-linecap:butt;stroke-linejoin:miter;stroke-opacity:1;marker-mid:url(#Arrow1LstartN)" />
    <path
       sodipodi:nodetypes="aaaaaaaa"
       inkscape:connector-curvature="0"
       id="path9135-8"
       d="m 34.491084,836.57311 c 8.679299,-37.47888 39.702506,-67.78375 70.526456,-87.64938 45.85569,-29.55348 103.24563,-43.75043 156.44913,-38.05614 39.80725,4.26051 85.68076,18.20565 109.51932,52.72392 33.37389,48.32545 53.72207,129.98644 21.32657,179.08481 C 350.70352,1005.7387 253.15914,989.15509 181.24494,991.0357 141.325,992.0796 92.12996,999.7033 63.01015,970.34697 31.963964,939.04857 24.210021,880.96857 34.491084,836.57311 z"
       style="fill:none;stroke:#0000ff;stroke-width:1;stroke-linecap:butt;stroke-linejoin:miter;stroke-miterlimit:4;stroke-opacity:1;stroke-dasharray:none;marker-mid:url(#Arrow1Lstarta)" />
    <path
       sodipodi:nodetypes="cc"
       inkscape:connector-curvature="0"
       id="path9180"
       d="M 99.40343,928.35359 63.01015,970.34697"
       style="fill:none;stroke:#ff00ff;stroke-width:6;stroke-linecap:butt;stroke-linejoin:miter;stroke-miterlimit:4;stroke-opacity:1;stroke-dasharray:none;marker-start:none;marker-mid:none" />
    <path
       sodipodi:nodetypes="cc"
       inkscape:connector-curvature="0"
       id="path9182"
       d="m 301.13417,770.21941 31.25341,-39.51392"
       style="fill:none;stroke:#ff00ff;stroke-width:6;stroke-linecap:butt;stroke-linejoin:miter;stroke-miterlimit:4;stroke-opacity:1;stroke-dasharray:none" />
    <g
       id="g11431"
       transform="translate(-43.801879,743.34365)"
       style="stroke:none;stroke-opacity:1;fill:#c800c8;fill-opacity:0.51310861">
      <g
         word-spacing="normal"
         letter-spacing="normal"
         font-size-adjust="none"
         font-stretch="normal"
         font-weight="normal"
         font-variant="normal"
         font-style="normal"
         stroke-miterlimit="10.433"
         xml:space="preserve"
         transform="matrix(0.53149606,0,0,-0.53149606,-93.01181,393.30707)"
         id="content"
         style="font-style:normal;font-variant:normal;font-weight:normal;font-stretch:normal;letter-spacing:normal;word-spacing:normal;text-anchor:start;fill:#c800c8;stroke:none;stroke-linecap:butt;stroke-linejoin:miter;stroke-miterlimit:10.43299960999999954;stroke-opacity:1;stroke-dasharray:none;stroke-dashoffset:0;fill-opacity:0.51310861"><path
           id="path11434"
           d="m 469.82,440.23 0,0 0,0.01 0,0 0,0.01 -0.01,0.02 0,0.01 0,0.02 0,0.02 0,0.02 -0.01,0.02 0,0.02 -0.01,0.02 -0.01,0.02 -0.01,0.03 -0.01,0.02 -0.01,0.03 -0.01,0.02 -0.02,0.03 -0.02,0.02 -0.02,0.02 -0.02,0.03 -0.01,0.01 -0.01,0.01 -0.02,0.01 -0.01,0.01 -0.02,0.01 -0.01,0.01 -0.02,0.01 -0.01,0.01 -0.02,0.01 -0.02,0.01 -0.02,0 -0.02,0.01 -0.02,0.01 -0.02,0 -0.02,0.01 -0.02,0.01 -0.03,0 -0.02,0 -0.03,0.01 -0.02,0 -0.03,0 -0.03,0.01 -0.02,0 -0.03,0 c -1.16,0 -4.79,-0.41 -6.08,-0.5 -0.41,-0.05 -0.96,-0.1 -0.96,-1 0,-0.6 0.46,-0.6 1.21,-0.6 2.39,0 2.48,-0.34 2.48,-0.84 l -0.15,-1 -7.22,-28.7 c -0.21,-0.69 -0.21,-0.8 -0.21,-1.1 0,-1.14 1,-1.39 1.46,-1.39 0.64,0 1.39,0.46 1.68,1.05 0.25,0.45 2.5,9.66 2.8,10.91 1.69,-0.15 5.78,-0.94 5.78,-4.24 0,-0.34 0,-0.55 -0.15,-1.05 -0.1,-0.59 -0.21,-1.18 -0.21,-1.73 0,-2.95 2,-4.94 4.6,-4.94 1.48,0 2.83,0.8 3.93,2.64 1.24,2.19 1.79,4.94 1.79,5.03 0,0.5 -0.44,0.5 -0.6,0.5 -0.5,0 -0.54,-0.2 -0.7,-0.9 -0.99,-3.63 -2.14,-6.17 -4.33,-6.17 -0.94,0 -1.59,0.54 -1.59,2.34 0,0.84 0.2,1.98 0.4,2.78 0.19,0.86 0.19,1.05 0.19,1.55 0,3.25 -3.14,4.69 -7.37,5.23 1.54,0.91 3.14,2.5 4.29,3.69 2.39,2.64 4.67,4.78 7.13,4.78 0.29,0 0.34,0 0.44,-0.05 0.6,-0.09 0.65,-0.09 1.04,-0.39 0.11,-0.06 0.11,-0.11 0.21,-0.2 -2.4,-0.16 -2.85,-2.09 -2.85,-2.69 0,-0.79 0.55,-1.75 1.89,-1.75 1.3,0 2.75,1.1 2.75,3.03 0,1.5 -1.15,3.14 -3.39,3.14 -1.39,0 -3.69,-0.39 -7.28,-4.37 -1.69,-1.89 -3.62,-3.89 -5.52,-4.64 z"
           inkscape:connector-curvature="0"
           style="fill:#c800c8;stroke-width:0;stroke:none;stroke-opacity:1;fill-opacity:0.51310861" /><path
           id="path11436"
           d="m 493.11,420.92 0,0.04 0,0.04 0,0.05 0,0.04 0,0.03 0,0.04 0,0.04 0,0.03 0,0.04 0,0.03 -0.01,0.03 0,0.03 0,0.03 0,0.03 -0.01,0.03 0,0.02 -0.01,0.03 0,0.02 -0.01,0.03 0,0.02 -0.01,0.04 -0.02,0.04 -0.02,0.03 -0.01,0.03 -0.03,0.03 -0.02,0.03 -0.03,0.02 -0.03,0.02 -0.03,0.02 -0.04,0.01 -0.04,0.01 -0.04,0.02 -0.03,0 -0.02,0 -0.03,0.01 -0.02,0 -0.03,0.01 -0.03,0 -0.03,0 -0.03,0 -0.03,0 -0.04,0.01 -0.03,0 -0.04,0 -0.03,0 -0.04,0 -0.04,0 -0.04,0 -0.04,0 -0.04,0 -0.05,0 -0.04,0 c -2.24,-2.2 -5.39,-2.23 -6.83,-2.23 v -1.25 c 0.84,0 3.14,0 5.05,0.97 v -17.77 c 0,-1.16 0,-1.61 -3.49,-1.61 h -1.31 v -1.25 c 0.62,0.03 4.9,0.14 6.2,0.14 1.08,0 5.47,-0.11 6.24,-0.14 v 1.25 h -1.33 c -3.49,0 -3.49,0.45 -3.49,1.61 z"
           inkscape:connector-curvature="0"
           style="fill:#c800c8;stroke-width:0;stroke:none;stroke-opacity:1;fill-opacity:0.51310861" /></g>    </g>
    <g
       id="g11494"
       transform="translate(137.84709,620.95604)"
       style="stroke:none;stroke-opacity:1;fill:#c800c8;fill-opacity:0.51310861">
      <g
         id="g11496"
         transform="matrix(0.53149606,0,0,-0.53149606,-93.01181,393.30707)"
         xml:space="preserve"
         stroke-miterlimit="10.433"
         font-style="normal"
         font-variant="normal"
         font-weight="normal"
         font-stretch="normal"
         font-size-adjust="none"
         letter-spacing="normal"
         word-spacing="normal"
         style="font-style:normal;font-variant:normal;font-weight:normal;font-stretch:normal;letter-spacing:normal;word-spacing:normal;text-anchor:start;fill:#c800c8;stroke:none;stroke-linecap:butt;stroke-linejoin:miter;stroke-miterlimit:10.43299960999999954;stroke-opacity:1;stroke-dasharray:none;stroke-dashoffset:0;fill-opacity:0.51310861"><path
           d="m 469.82,440.23 0,0 0,0.01 0,0 0,0.01 -0.01,0.02 0,0.01 0,0.02 0,0.02 0,0.02 -0.01,0.02 0,0.02 -0.01,0.02 -0.01,0.02 -0.01,0.03 -0.01,0.02 -0.01,0.03 -0.01,0.02 -0.02,0.03 -0.02,0.02 -0.02,0.02 -0.02,0.03 -0.01,0.01 -0.01,0.01 -0.02,0.01 -0.01,0.01 -0.02,0.01 -0.01,0.01 -0.02,0.01 -0.01,0.01 -0.02,0.01 -0.02,0.01 -0.02,0 -0.02,0.01 -0.02,0.01 -0.02,0 -0.02,0.01 -0.02,0.01 -0.03,0 -0.02,0 -0.03,0.01 -0.02,0 -0.03,0 -0.03,0.01 -0.02,0 -0.03,0 c -1.16,0 -4.79,-0.41 -6.08,-0.5 -0.41,-0.05 -0.96,-0.1 -0.96,-1 0,-0.6 0.46,-0.6 1.21,-0.6 2.39,0 2.48,-0.34 2.48,-0.84 l -0.15,-1 -7.22,-28.7 c -0.21,-0.69 -0.21,-0.8 -0.21,-1.1 0,-1.14 1,-1.39 1.46,-1.39 0.64,0 1.39,0.46 1.68,1.05 0.25,0.45 2.5,9.66 2.8,10.91 1.69,-0.15 5.78,-0.94 5.78,-4.24 0,-0.34 0,-0.55 -0.15,-1.05 -0.1,-0.59 -0.21,-1.18 -0.21,-1.73 0,-2.95 2,-4.94 4.6,-4.94 1.48,0 2.83,0.8 3.93,2.64 1.24,2.19 1.79,4.94 1.79,5.03 0,0.5 -0.44,0.5 -0.6,0.5 -0.5,0 -0.54,-0.2 -0.7,-0.9 -0.99,-3.63 -2.14,-6.17 -4.33,-6.17 -0.94,0 -1.59,0.54 -1.59,2.34 0,0.84 0.2,1.98 0.4,2.78 0.19,0.86 0.19,1.05 0.19,1.55 0,3.25 -3.14,4.69 -7.37,5.23 1.54,0.91 3.14,2.5 4.29,3.69 2.39,2.64 4.67,4.78 7.13,4.78 0.29,0 0.34,0 0.44,-0.05 0.6,-0.09 0.65,-0.09 1.04,-0.39 0.11,-0.06 0.11,-0.11 0.21,-0.2 -2.4,-0.16 -2.85,-2.09 -2.85,-2.69 0,-0.79 0.55,-1.75 1.89,-1.75 1.3,0 2.75,1.1 2.75,3.03 0,1.5 -1.15,3.14 -3.39,3.14 -1.39,0 -3.69,-0.39 -7.28,-4.37 -1.69,-1.89 -3.62,-3.89 -5.52,-4.64 z"
           id="path11498"
           inkscape:connector-curvature="0"
           style="fill:#c800c8;stroke-width:0;stroke:none;stroke-opacity:1;fill-opacity:0.51310861" /><path
           d="m 499.04,405.11 h -1.19 c -0.1,-0.77 -0.46,-2.83 -0.91,-3.18 -0.26,-0.2 -2.95,-0.2 -3.44,-0.2 h -6.42 c 3.66,3.23 4.88,4.2 6.97,5.84 2.58,2.07 4.99,4.22 4.99,7.54 0,4.21 -3.69,6.79 -8.16,6.79 -4.31,0 -7.25,-3.03 -7.25,-6.23 0,-1.78 1.5,-1.96 1.86,-1.96 0.83,0 1.84,0.6 1.84,1.85 0,0.62 -0.25,1.84 -2.06,1.84 1.08,2.47 3.45,3.24 5.09,3.24 3.49,0 5.3,-2.71 5.3,-5.53 0,-3.04 -2.16,-5.44 -3.28,-6.69 l -8.39,-8.3 c -0.36,-0.31 -0.36,-0.39 -0.36,-1.36 h 14.36 z"
           id="path11500"
           inkscape:connector-curvature="0"
           style="fill:#c800c8;stroke-width:0;stroke:none;stroke-opacity:1;fill-opacity:0.51310861" /></g>    </g>
    <g
       id="g11566"
       transform="translate(74.720852,694.3886)">
      <g
         word-spacing="normal"
         letter-spacing="normal"
         font-size-adjust="none"
         font-stretch="normal"
         font-weight="normal"
         font-variant="normal"
         font-style="normal"
         stroke-miterlimit="10.433"
         xml:space="preserve"
         transform="matrix(0.53149606,0,0,-0.53149606,-93.01181,393.30707)"
         id="g11568"
         style="font-style:normal;font-variant:normal;font-weight:normal;font-stretch:normal;letter-spacing:normal;word-spacing:normal;text-anchor:start;fill:none;stroke:#000000;stroke-linecap:butt;stroke-linejoin:miter;stroke-miterlimit:10.43299961;stroke-opacity:1;stroke-dasharray:none;stroke-dashoffset:0"><path
           id="path11570"
           d="m 464.44,411.93 -0.19,-0.3 -0.18,-0.29 -0.19,-0.28 -0.19,-0.26 -0.18,-0.25 -0.19,-0.23 -0.19,-0.22 -0.18,-0.21 -0.19,-0.2 -0.19,-0.18 -0.18,-0.17 -0.19,-0.16 -0.19,-0.15 -0.18,-0.14 -0.19,-0.13 -0.19,-0.12 -0.19,-0.11 -0.19,-0.1 -0.19,-0.09 -0.19,-0.09 -0.19,-0.07 -0.2,-0.07 -0.19,-0.07 -0.2,-0.05 -0.19,-0.05 -0.2,-0.04 -0.2,-0.04 -0.19,-0.03 -0.41,-0.05 -0.4,-0.03 c -0.61,-0.05 -1.05,-0.05 -1.05,-1 0,-0.3 0.25,-0.55 0.64,-0.55 1.34,0 2.89,0.16 4.28,0.16 1.64,0 3.39,-0.16 4.99,-0.16 0.29,0 0.95,0 0.95,0.95 0,0.55 -0.45,0.6 -0.8,0.6 -1.15,0.09 -2.34,0.5 -2.34,1.73 0,0.61 0.3,1.16 0.69,1.84 l 3.79,6.39 h 12.5 l -0.14,1.54 h -11.42 l 9.83,16.45 1.59,-16.45 0.14,-1.54 c 0.11,-1.04 0.8,-7.82 0.8,-8.32 0,-1.5 -2.59,-1.64 -3.58,-1.64 -0.7,0 -1.2,0 -1.2,-1 0,-0.55 0.59,-0.55 0.7,-0.55 2.03,0 4.19,0.16 6.22,0.16 1.25,0 4.39,-0.16 5.64,-0.16 0.3,0 0.89,0 0.89,1 0,0.55 -0.5,0.55 -1.14,0.55 -3.09,0 -3.09,0.34 -3.25,1.79 l -3.03,31.13 c -0.11,1 -0.11,1.2 -0.95,1.2 -0.8,0 -0.99,-0.34 -1.3,-0.84 z"
           inkscape:connector-curvature="0"
           style="fill:#000000;stroke-width:0" /></g>    </g>
    <g
       style="fill:#388138;fill-opacity:1"
       id="g11642"
       transform="translate(234.42078,529.47593)">
      <g
         id="g11644"
         transform="matrix(0.53149606,0,0,-0.53149606,-93.01181,393.30707)"
         xml:space="preserve"
         stroke-miterlimit="10.433"
         font-style="normal"
         font-variant="normal"
         font-weight="normal"
         font-stretch="normal"
         font-size-adjust="none"
         letter-spacing="normal"
         word-spacing="normal"
         style="font-style:normal;font-variant:normal;font-weight:normal;font-stretch:normal;letter-spacing:normal;word-spacing:normal;text-anchor:start;fill:#388138;fill-opacity:1;stroke:#000000;stroke-linecap:butt;stroke-linejoin:miter;stroke-miterlimit:10.43299961;stroke-opacity:1;stroke-dasharray:none;stroke-dashoffset:0"><path
           d="m 473.41,409.31 0.5,0.09 0.49,0.1 0.47,0.13 0.45,0.14 0.44,0.16 0.43,0.18 0.41,0.2 0.4,0.21 0.38,0.23 0.36,0.24 0.35,0.26 0.33,0.27 0.32,0.28 0.3,0.29 0.29,0.31 0.27,0.31 0.25,0.33 0.24,0.33 0.23,0.34 0.2,0.35 0.19,0.36 0.18,0.36 0.15,0.37 0.15,0.37 0.12,0.38 0.11,0.38 0.09,0.38 0.08,0.38 0.06,0.39 0.04,0.38 0.02,0.38 0.01,0.39 -1.98,0.04 c 0,-3.57 -2.6,-6.57 -6.03,-7.21 l 1.39,14 c 2.59,-1.05 4.64,-3.64 4.64,-6.79 l 1.98,-0.04 c 0,3.69 -2.23,7.47 -6.47,8.87 0.35,5.24 0.55,7.07 0.6,8.02 0.5,5.48 1.25,9.72 4.58,9.72 0.5,0 2.04,-0.11 3.14,-1.05 -1.44,-0.2 -1.85,-1.34 -1.85,-2.05 0,-1.43 1.1,-2.09 2.05,-2.09 1,0 2.09,0.66 2.09,2.14 0,2.39 -2.5,4.14 -5.48,4.14 -3.99,0 -5.88,-3.39 -6.88,-6.28 -0.64,-1.94 -1,-3.48 -2.04,-12.11 -5.42,-0.8 -8.32,-5.17 -8.32,-9.27 h 1.99 c 0,3.4 2.5,6.49 6.03,7.18 l -1.44,-13.99 c -2.29,0.99 -4.59,3.38 -4.59,6.81 h -1.99 c 0,-3.68 2.24,-7.46 6.47,-8.85 -0.34,-5.15 -0.5,-6.74 -0.59,-7.72 -0.5,-5.44 -1.39,-10.02 -5.23,-10.02 -0.65,0 -2.15,0.14 -3.19,1.05 1.45,0.19 1.84,1.34 1.84,2.03 0,1.45 -1.09,2.09 -2.05,2.09 -0.98,0 -2.07,-0.64 -2.07,-2.14 0,-2.39 2.48,-4.12 5.47,-4.12 3.89,0 6.12,2.94 7.37,6.01 1.09,2.8 1.45,5.58 2.25,12.36 z"
           id="path11646"
           inkscape:connector-curvature="0"
           style="fill:#388138;fill-opacity:1;stroke-width:0" /><path
           d="m 494.05,401.54 -0.08,-0.03 -0.08,-0.02 -0.08,-0.03 -0.08,-0.02 -0.07,-0.04 -0.08,-0.03 -0.07,-0.04 -0.07,-0.04 -0.06,-0.04 -0.07,-0.04 -0.06,-0.05 -0.06,-0.05 -0.06,-0.05 -0.05,-0.05 -0.05,-0.05 -0.05,-0.06 -0.05,-0.05 -0.04,-0.06 -0.04,-0.06 -0.04,-0.06 -0.03,-0.06 -0.04,-0.06 -0.03,-0.06 -0.02,-0.06 -0.03,-0.07 -0.02,-0.06 -0.01,-0.07 -0.02,-0.06 -0.01,-0.07 -0.01,-0.06 0,-0.07 0,-0.06 c 0,-0.81 0.7,-1.12 1.15,-1.12 0.35,0 1.67,0.21 1.67,1.98 0,2.27 -2.5,3.03 -4.62,3.03 -5.44,0 -6.42,-4 -6.42,-5.08 0,-1.29 0.73,-2.12 1.22,-2.54 0.9,-0.71 1.53,-0.83 3.93,-1.25 0.74,-0.14 2.97,-0.57 2.97,-2.3 0,-0.59 -0.39,-1.92 -1.84,-2.8 -1.36,-0.76 -3.08,-0.76 -3.49,-0.76 -1.4,0 -3.39,0.31 -4.18,1.47 1.15,0.14 1.92,1 1.92,1.98 0,0.87 -0.63,1.28 -1.36,1.28 -1.02,0 -2.03,-0.8 -2.03,-2.33 0,-2.09 2.23,-3.37 5.61,-3.37 6.42,0 7.61,4.39 7.61,5.75 0,3.2 -3.53,3.83 -4.82,4.08 -0.31,0.06 -1.18,0.2 -1.39,0.26 -1.29,0.25 -1.92,0.99 -1.92,1.75 0,0.8 0.63,1.74 1.39,2.24 0.94,0.59 2.16,0.65 2.75,0.65 0.74,0 2.55,-0.11 3.31,-1.29 z"
           id="path11648"
           inkscape:connector-curvature="0"
           style="fill:#388138;fill-opacity:1;stroke-width:0" /><path
           d="m 507.8,399.36 0,0.04 0,0.03 0,0.03 0,0.04 0,0.03 0,0.02 0,0.03 0,0.03 -0.01,0.03 0,0.02 0,0.03 0,0.02 0,0.02 -0.01,0.03 0,0.02 0,0.02 -0.01,0.02 0,0.01 -0.01,0.04 -0.01,0.03 -0.02,0.03 -0.01,0.03 -0.02,0.02 -0.02,0.02 -0.02,0.02 -0.03,0.02 -0.02,0.01 -0.03,0.01 -0.03,0.01 -0.04,0.01 -0.04,0.01 -0.04,0.01 -0.02,0 -0.02,0 -0.03,0 -0.02,0.01 -0.03,0 -0.02,0 -0.03,0 -0.03,0 -0.03,0 -0.03,0 -0.03,0 -0.03,0 -0.03,0 -0.04,0 -0.03,0 -0.04,0 -0.04,0 -0.04,0 c -1.76,-1.59 -4.53,-1.59 -5.03,-1.59 h -0.42 v -1.09 h 0.42 c 0.58,0 2.19,0.06 3.64,0.68 v -12.45 c 0,-0.77 0,-1.05 -2.64,-1.05 h -1.25 v -1.09 c 1.38,0.09 3.6,0.09 5.03,0.09 1.46,0 3.68,0 5.04,-0.09 v 1.09 h -1.24 c -2.64,0 -2.64,0.28 -2.64,1.05 z"
           id="path11650"
           inkscape:connector-curvature="0"
           style="fill:#388138;fill-opacity:1;stroke-width:0" /><path
           d="m 546.4,426.12 h 4.28 c 1,0 1.5,0 1.5,1 0,0.55 -0.5,0.55 -1.34,0.55 h -4.14 l 1.05,5.69 c 0.2,1.04 0.9,4.57 1.2,5.17 0.45,0.95 1.3,1.7 2.34,1.7 0.19,0 1.49,0 2.44,-0.91 -2.19,-0.18 -2.69,-1.93 -2.69,-2.68 0,-1.14 0.89,-1.74 1.85,-1.74 1.29,0 2.73,1.1 2.73,2.99 0,2.29 -2.3,3.43 -4.33,3.43 -1.7,0 -4.84,-0.89 -6.32,-5.82 -0.3,-1.05 -0.46,-1.55 -1.65,-7.83 h -3.43 c -0.96,0 -1.5,0 -1.5,-0.94 0,-0.61 0.45,-0.61 1.39,-0.61 h 3.29 l -3.75,-19.67 c -0.89,-4.83 -1.73,-9.38 -4.32,-9.38 -0.21,0 -1.44,0 -2.4,0.91 2.3,0.14 2.74,1.94 2.74,2.69 0,1.14 -0.89,1.75 -1.84,1.75 -1.3,0 -2.74,-1.1 -2.74,-3 0,-2.24 2.19,-3.44 4.24,-3.44 2.73,0 4.73,2.94 5.62,4.84 1.6,3.14 2.75,9.16 2.8,9.52 z"
           id="path11652"
           inkscape:connector-curvature="0"
           style="fill:#388138;fill-opacity:1;stroke-width:0" /><path
           d="m 574.36,394.25 0,0.02 0,0.03 0,0.01 0,0.02 -0.01,0.01 0,0.02 -0.01,0.01 0,0.02 -0.01,0.02 -0.01,0.02 -0.01,0.02 -0.02,0.03 -0.01,0.02 -0.02,0.03 -0.02,0.03 -0.03,0.03 -0.02,0.03 -0.03,0.04 -0.02,0.02 -0.02,0.02 -0.01,0.02 -0.02,0.02 -0.02,0.02 -0.02,0.03 -0.02,0.02 -0.02,0.02 -0.03,0.03 -0.02,0.02 -0.02,0.03 -0.03,0.03 -0.03,0.03 -0.02,0.03 -0.03,0.03 -0.03,0.03 -0.03,0.03 -0.03,0.03 -0.04,0.04 -0.03,0.03 -0.04,0.04 -0.03,0.03 -0.04,0.04 -0.04,0.04 c -6.22,6.28 -7.81,15.69 -7.81,23.31 0,8.67 1.89,17.35 8.01,23.56 0.64,0.61 0.64,0.71 0.64,0.86 0,0.35 -0.18,0.49 -0.48,0.49 -0.5,0 -4.98,-3.38 -7.92,-9.7 -2.55,-5.49 -3.14,-11.02 -3.14,-15.21 0,-3.89 0.54,-9.9 3.28,-15.54 2.98,-6.13 7.28,-9.36 7.78,-9.36 0.3,0 0.48,0.14 0.48,0.5 z"
           id="path11654"
           inkscape:connector-curvature="0"
           style="fill:#388138;fill-opacity:1;stroke-width:0" /><path
           d="m 583.82,410.34 0.25,0.27 0.24,0.25 0.23,0.25 0.23,0.24 0.23,0.23 0.21,0.22 0.21,0.22 0.21,0.21 0.2,0.2 0.2,0.19 0.19,0.19 0.19,0.19 0.18,0.17 0.18,0.18 0.35,0.33 0.34,0.32 0.34,0.3 0.33,0.29 0.32,0.29 0.65,0.56 0.32,0.29 0.34,0.28 c 0,0.05 3.08,2.69 4.87,4.49 4.74,4.64 5.83,7.03 5.83,7.21 0,0.5 -0.45,0.5 -0.55,0.5 -0.34,0 -0.5,-0.09 -0.75,-0.54 -1.48,-2.39 -2.53,-3.19 -3.73,-3.19 -1.2,0 -1.8,0.75 -2.55,1.59 -0.93,1.16 -1.78,2.14 -3.43,2.14 -3.74,0 -6.02,-4.62 -6.02,-5.67 0,-0.25 0.14,-0.54 0.59,-0.54 0.46,0 0.55,0.25 0.64,0.54 0.96,2.3 3.85,2.35 4.24,2.35 1.05,0 2,-0.36 3.14,-0.75 2,-0.75 2.55,-0.75 3.84,-0.75 -1.79,-2.14 -5.98,-5.74 -6.92,-6.53 l -4.48,-4.18 c -3.39,-3.34 -5.14,-6.18 -5.14,-6.53 0,-0.5 0.5,-0.5 0.59,-0.5 0.41,0 0.5,0.1 0.8,0.64 1.15,1.75 2.64,3.1 4.23,3.1 1.16,0 1.66,-0.46 2.89,-1.89 0.86,-1.05 1.75,-1.85 3.19,-1.85 4.94,0 7.83,6.33 7.83,7.67 0,0.25 -0.21,0.5 -0.6,0.5 -0.45,0 -0.54,-0.29 -0.7,-0.65 -1.14,-3.24 -4.33,-4.17 -5.98,-4.17 -0.99,0 -1.89,0.29 -2.94,0.64 -1.69,0.64 -2.44,0.84 -3.49,0.84 -0.09,0 -0.89,0 -1.34,-0.14 z"
           id="path11656"
           inkscape:connector-curvature="0"
           style="fill:#388138;fill-opacity:1;stroke-width:0" /><path
           d="m 616.9,418.65 0,0.37 0,0.39 -0.01,0.39 -0.02,0.41 -0.04,0.84 -0.06,0.88 -0.08,0.92 -0.11,0.95 -0.13,0.97 -0.16,1.01 -0.2,1.02 -0.23,1.03 -0.27,1.05 -0.3,1.06 -0.35,1.07 -0.39,1.07 -0.22,0.53 -0.22,0.53 -0.24,0.53 -0.25,0.53 c -2.98,6.12 -7.27,9.36 -7.77,9.36 -0.29,0 -0.5,-0.19 -0.5,-0.49 0,-0.15 0,-0.25 0.94,-1.15 4.89,-4.92 7.74,-12.85 7.74,-23.27 0,-8.51 -1.85,-17.28 -8.03,-23.56 -0.65,-0.59 -0.65,-0.7 -0.65,-0.84 0,-0.3 0.21,-0.5 0.5,-0.5 0.5,0 4.97,3.39 7.93,9.71 2.53,5.47 3.12,11 3.12,15.19 z"
           id="path11658"
           inkscape:connector-curvature="0"
           style="fill:#388138;fill-opacity:1;stroke-width:0" /><path
           d="m 669.98,422.5 0.14,0 0.15,0 0.14,0 0.08,0.01 0.07,0 0.07,0.01 0.07,0.01 0.07,0.01 0.07,0.01 0.07,0.01 0.07,0.02 0.06,0.02 0.06,0.02 0.06,0.02 0.06,0.03 0.06,0.03 0.05,0.04 0.05,0.03 0.05,0.05 0.04,0.04 0.04,0.05 0.02,0.03 0.02,0.03 0.01,0.02 0.02,0.03 0.01,0.03 0.02,0.04 0.01,0.03 0.01,0.04 0.01,0.03 0.01,0.04 0.01,0.04 0,0.04 0.01,0.04 0,0.04 0,0.04 0,0.05 c 0,1 -0.95,1 -1.64,1 h -29.84 c -0.71,0 -1.64,0 -1.64,-1 0,-0.98 0.93,-0.98 1.68,-0.98 z"
           id="path11660"
           inkscape:connector-curvature="0"
           style="fill:#388138;fill-opacity:1;stroke-width:0" /><path
           d="m 670.03,412.82 0.07,0 0.06,0 0.14,0.01 0.14,0 0.07,0 0.07,0.01 0.07,0.01 0.07,0 0.06,0.01 0.07,0.02 0.07,0.01 0.06,0.02 0.07,0.02 0.06,0.02 0.06,0.02 0.06,0.03 0.05,0.03 0.05,0.04 0.05,0.04 0.05,0.04 0.04,0.05 0.02,0.02 0.02,0.03 0.02,0.02 0.02,0.03 0.01,0.03 0.02,0.03 0.01,0.03 0.02,0.03 0.01,0.04 0.01,0.03 0.01,0.04 0.01,0.04 0.01,0.04 0,0.04 0.01,0.04 0,0.04 0,0.05 0,0.04 c 0,1 -0.95,1 -1.69,1 h -29.75 c -0.75,0 -1.68,0 -1.68,-1 0,-1 0.93,-1 1.64,-1 z"
           id="path11662"
           inkscape:connector-curvature="0"
           style="fill:#388138;fill-opacity:1;stroke-width:0" /><path
           d="m 711.35,422.14 -0.01,0.74 -0.01,0.75 -0.02,0.75 -0.03,0.74 -0.04,0.75 -0.06,0.74 -0.08,0.74 -0.1,0.73 -0.11,0.73 -0.14,0.73 -0.16,0.72 -0.19,0.72 -0.22,0.72 -0.24,0.7 -0.28,0.7 -0.15,0.35 -0.16,0.34 c -2.28,4.8 -6.38,5.6 -8.47,5.6 -2.98,0 -6.63,-1.3 -8.67,-5.94 -1.6,-3.44 -1.85,-7.33 -1.85,-11.31 0,-3.74 0.21,-8.22 2.25,-12 2.14,-4.03 5.79,-5.03 8.22,-5.03 v 1.09 c -1.93,0 -4.89,1.25 -5.78,6.03 -0.55,2.98 -0.55,7.56 -0.55,10.52 0,3.18 0,6.46 0.41,9.15 0.94,5.94 4.67,6.38 5.92,6.38 1.64,0 4.94,-0.89 5.88,-5.83 0.5,-2.78 0.5,-6.58 0.5,-9.7 0,-3.75 0,-7.13 -0.55,-10.32 -0.75,-4.73 -3.59,-6.23 -5.83,-6.23 h 0 v -1.09 c 2.69,0 6.47,1.04 8.67,5.78 1.6,3.43 1.85,7.31 1.85,11.25 z"
           id="path11664"
           inkscape:connector-curvature="0"
           style="fill:#388138;fill-opacity:1;stroke-width:0" /></g>    </g>
    <g
       style="fill:#b2b150;fill-opacity:1"
       id="g11760"
       transform="translate(234.22526,569.1189)">
      <g
         word-spacing="normal"
         letter-spacing="normal"
         font-size-adjust="none"
         font-stretch="normal"
         font-weight="normal"
         font-variant="normal"
         font-style="normal"
         stroke-miterlimit="10.433"
         xml:space="preserve"
         transform="matrix(0.53149606,0,0,-0.53149606,-93.01181,393.30707)"
         id="g11762"
         style="font-style:normal;font-variant:normal;font-weight:normal;font-stretch:normal;letter-spacing:normal;word-spacing:normal;text-anchor:start;fill:#b2b150;fill-opacity:1;stroke:#000000;stroke-linecap:butt;stroke-linejoin:miter;stroke-miterlimit:10.43299961;stroke-opacity:1;stroke-dasharray:none;stroke-dashoffset:0"><path
           id="path11764"
           d="m 473.41,409.31 0.5,0.09 0.49,0.1 0.47,0.13 0.45,0.14 0.44,0.16 0.43,0.18 0.41,0.2 0.4,0.21 0.38,0.23 0.36,0.24 0.35,0.26 0.33,0.27 0.32,0.28 0.3,0.29 0.29,0.31 0.27,0.31 0.25,0.33 0.24,0.33 0.23,0.34 0.2,0.35 0.19,0.36 0.18,0.36 0.15,0.37 0.15,0.37 0.12,0.38 0.11,0.38 0.09,0.38 0.08,0.38 0.06,0.39 0.04,0.38 0.02,0.38 0.01,0.39 -1.98,0.04 c 0,-3.57 -2.6,-6.57 -6.03,-7.21 l 1.39,14 c 2.59,-1.05 4.64,-3.64 4.64,-6.79 l 1.98,-0.04 c 0,3.69 -2.23,7.47 -6.47,8.87 0.35,5.24 0.55,7.07 0.6,8.02 0.5,5.48 1.25,9.72 4.58,9.72 0.5,0 2.04,-0.11 3.14,-1.05 -1.44,-0.2 -1.85,-1.34 -1.85,-2.05 0,-1.43 1.1,-2.09 2.05,-2.09 1,0 2.09,0.66 2.09,2.14 0,2.39 -2.5,4.14 -5.48,4.14 -3.99,0 -5.88,-3.39 -6.88,-6.28 -0.64,-1.94 -1,-3.48 -2.04,-12.11 -5.42,-0.8 -8.32,-5.17 -8.32,-9.27 h 1.99 c 0,3.4 2.5,6.49 6.03,7.18 l -1.44,-13.99 c -2.29,0.99 -4.59,3.38 -4.59,6.81 h -1.99 c 0,-3.68 2.24,-7.46 6.47,-8.85 -0.34,-5.15 -0.5,-6.74 -0.59,-7.72 -0.5,-5.44 -1.39,-10.02 -5.23,-10.02 -0.65,0 -2.15,0.14 -3.19,1.05 1.45,0.19 1.84,1.34 1.84,2.03 0,1.45 -1.09,2.09 -2.05,2.09 -0.98,0 -2.07,-0.64 -2.07,-2.14 0,-2.39 2.48,-4.12 5.47,-4.12 3.89,0 6.12,2.94 7.37,6.01 1.09,2.8 1.45,5.58 2.25,12.36 z"
           inkscape:connector-curvature="0"
           style="fill:#b2b150;fill-opacity:1;stroke-width:0" /><path
           id="path11766"
           d="m 494.05,401.54 -0.08,-0.03 -0.08,-0.02 -0.08,-0.03 -0.08,-0.02 -0.07,-0.04 -0.08,-0.03 -0.07,-0.04 -0.07,-0.04 -0.06,-0.04 -0.07,-0.04 -0.06,-0.05 -0.06,-0.05 -0.06,-0.05 -0.05,-0.05 -0.05,-0.05 -0.05,-0.06 -0.05,-0.05 -0.04,-0.06 -0.04,-0.06 -0.04,-0.06 -0.03,-0.06 -0.04,-0.06 -0.03,-0.06 -0.02,-0.06 -0.03,-0.07 -0.02,-0.06 -0.01,-0.07 -0.02,-0.06 -0.01,-0.07 -0.01,-0.06 0,-0.07 0,-0.06 c 0,-0.81 0.7,-1.12 1.15,-1.12 0.35,0 1.67,0.21 1.67,1.98 0,2.27 -2.5,3.03 -4.62,3.03 -5.44,0 -6.42,-4 -6.42,-5.08 0,-1.29 0.73,-2.12 1.22,-2.54 0.9,-0.71 1.53,-0.83 3.93,-1.25 0.74,-0.14 2.97,-0.57 2.97,-2.3 0,-0.59 -0.39,-1.92 -1.84,-2.8 -1.36,-0.76 -3.08,-0.76 -3.49,-0.76 -1.4,0 -3.39,0.31 -4.18,1.47 1.15,0.14 1.92,1 1.92,1.98 0,0.87 -0.63,1.28 -1.36,1.28 -1.02,0 -2.03,-0.8 -2.03,-2.33 0,-2.09 2.23,-3.37 5.61,-3.37 6.42,0 7.61,4.39 7.61,5.75 0,3.2 -3.53,3.83 -4.82,4.08 -0.31,0.06 -1.18,0.2 -1.39,0.26 -1.29,0.25 -1.92,0.99 -1.92,1.75 0,0.8 0.63,1.74 1.39,2.24 0.94,0.59 2.16,0.65 2.75,0.65 0.74,0 2.55,-0.11 3.31,-1.29 z"
           inkscape:connector-curvature="0"
           style="fill:#b2b150;fill-opacity:1;stroke-width:0" /><path
           id="path11768"
           d="m 512.55,388.33 h -1.05 c -0.07,-0.48 -0.32,-2.01 -0.71,-2.26 -0.21,-0.16 -2.3,-0.16 -2.68,-0.16 h -4.87 c 1.64,1.22 3.48,2.61 4.98,3.61 2.24,1.55 4.33,3 4.33,5.64 0,3.19 -3.01,4.95 -6.58,4.95 -3.36,0 -5.83,-1.95 -5.83,-4.39 0,-1.29 1.1,-1.51 1.46,-1.51 0.67,0 1.47,0.45 1.47,1.47 0,0.89 -0.66,1.39 -1.43,1.46 0.69,1.13 2.15,1.88 3.82,1.88 2.4,0 4.42,-1.45 4.42,-3.89 0,-2.09 -1.44,-3.69 -3.36,-5.31 l -6.08,-5.16 c -0.25,-0.22 -0.26,-0.22 -0.3,-0.39 v -0.75 h 11.58 z"
           inkscape:connector-curvature="0"
           style="fill:#b2b150;fill-opacity:1;stroke-width:0" /><path
           id="path11770"
           d="m 546.4,426.12 h 4.28 c 1,0 1.5,0 1.5,1 0,0.55 -0.5,0.55 -1.34,0.55 h -4.14 l 1.05,5.69 c 0.2,1.04 0.9,4.57 1.2,5.17 0.45,0.95 1.3,1.7 2.34,1.7 0.19,0 1.49,0 2.44,-0.91 -2.19,-0.18 -2.69,-1.93 -2.69,-2.68 0,-1.14 0.89,-1.74 1.85,-1.74 1.29,0 2.73,1.1 2.73,2.99 0,2.29 -2.3,3.43 -4.33,3.43 -1.7,0 -4.84,-0.89 -6.32,-5.82 -0.3,-1.05 -0.46,-1.55 -1.65,-7.83 h -3.43 c -0.96,0 -1.5,0 -1.5,-0.94 0,-0.61 0.45,-0.61 1.39,-0.61 h 3.29 l -3.75,-19.67 c -0.89,-4.83 -1.73,-9.38 -4.32,-9.38 -0.21,0 -1.44,0 -2.4,0.91 2.3,0.14 2.74,1.94 2.74,2.69 0,1.14 -0.89,1.75 -1.84,1.75 -1.3,0 -2.74,-1.1 -2.74,-3 0,-2.24 2.19,-3.44 4.24,-3.44 2.73,0 4.73,2.94 5.62,4.84 1.6,3.14 2.75,9.16 2.8,9.52 z"
           inkscape:connector-curvature="0"
           style="fill:#b2b150;fill-opacity:1;stroke-width:0" /><path
           id="path11772"
           d="m 574.36,394.25 0,0.02 0,0.03 0,0.01 0,0.02 -0.01,0.01 0,0.02 -0.01,0.01 0,0.02 -0.01,0.02 -0.01,0.02 -0.01,0.02 -0.02,0.03 -0.01,0.02 -0.02,0.03 -0.02,0.03 -0.03,0.03 -0.02,0.03 -0.03,0.04 -0.02,0.02 -0.02,0.02 -0.01,0.02 -0.02,0.02 -0.02,0.02 -0.02,0.03 -0.02,0.02 -0.02,0.02 -0.03,0.03 -0.02,0.02 -0.02,0.03 -0.03,0.03 -0.03,0.03 -0.02,0.03 -0.03,0.03 -0.03,0.03 -0.03,0.03 -0.03,0.03 -0.04,0.04 -0.03,0.03 -0.04,0.04 -0.03,0.03 -0.04,0.04 -0.04,0.04 c -6.22,6.28 -7.81,15.69 -7.81,23.31 0,8.67 1.89,17.35 8.01,23.56 0.64,0.61 0.64,0.71 0.64,0.86 0,0.35 -0.18,0.49 -0.48,0.49 -0.5,0 -4.98,-3.38 -7.92,-9.7 -2.55,-5.49 -3.14,-11.02 -3.14,-15.21 0,-3.89 0.54,-9.9 3.28,-15.54 2.98,-6.13 7.28,-9.36 7.78,-9.36 0.3,0 0.48,0.14 0.48,0.5 z"
           inkscape:connector-curvature="0"
           style="fill:#b2b150;fill-opacity:1;stroke-width:0" /><path
           id="path11774"
           d="m 583.82,410.34 0.25,0.27 0.24,0.25 0.23,0.25 0.23,0.24 0.23,0.23 0.21,0.22 0.21,0.22 0.21,0.21 0.2,0.2 0.2,0.19 0.19,0.19 0.19,0.19 0.18,0.17 0.18,0.18 0.35,0.33 0.34,0.32 0.34,0.3 0.33,0.29 0.32,0.29 0.65,0.56 0.32,0.29 0.34,0.28 c 0,0.05 3.08,2.69 4.87,4.49 4.74,4.64 5.83,7.03 5.83,7.21 0,0.5 -0.45,0.5 -0.55,0.5 -0.34,0 -0.5,-0.09 -0.75,-0.54 -1.48,-2.39 -2.53,-3.19 -3.73,-3.19 -1.2,0 -1.8,0.75 -2.55,1.59 -0.93,1.16 -1.78,2.14 -3.43,2.14 -3.74,0 -6.02,-4.62 -6.02,-5.67 0,-0.25 0.14,-0.54 0.59,-0.54 0.46,0 0.55,0.25 0.64,0.54 0.96,2.3 3.85,2.35 4.24,2.35 1.05,0 2,-0.36 3.14,-0.75 2,-0.75 2.55,-0.75 3.84,-0.75 -1.79,-2.14 -5.98,-5.74 -6.92,-6.53 l -4.48,-4.18 c -3.39,-3.34 -5.14,-6.18 -5.14,-6.53 0,-0.5 0.5,-0.5 0.59,-0.5 0.41,0 0.5,0.1 0.8,0.64 1.15,1.75 2.64,3.1 4.23,3.1 1.16,0 1.66,-0.46 2.89,-1.89 0.86,-1.05 1.75,-1.85 3.19,-1.85 4.94,0 7.83,6.33 7.83,7.67 0,0.25 -0.21,0.5 -0.6,0.5 -0.45,0 -0.54,-0.29 -0.7,-0.65 -1.14,-3.24 -4.33,-4.17 -5.98,-4.17 -0.99,0 -1.89,0.29 -2.94,0.64 -1.69,0.64 -2.44,0.84 -3.49,0.84 -0.09,0 -0.89,0 -1.34,-0.14 z"
           inkscape:connector-curvature="0"
           style="fill:#b2b150;fill-opacity:1;stroke-width:0" /><path
           id="path11776"
           d="m 616.9,418.65 0,0.37 0,0.39 -0.01,0.39 -0.02,0.41 -0.04,0.84 -0.06,0.88 -0.08,0.92 -0.11,0.95 -0.13,0.97 -0.16,1.01 -0.2,1.02 -0.23,1.03 -0.27,1.05 -0.3,1.06 -0.35,1.07 -0.39,1.07 -0.22,0.53 -0.22,0.53 -0.24,0.53 -0.25,0.53 c -2.98,6.12 -7.27,9.36 -7.77,9.36 -0.29,0 -0.5,-0.19 -0.5,-0.49 0,-0.15 0,-0.25 0.94,-1.15 4.89,-4.92 7.74,-12.85 7.74,-23.27 0,-8.51 -1.85,-17.28 -8.03,-23.56 -0.65,-0.59 -0.65,-0.7 -0.65,-0.84 0,-0.3 0.21,-0.5 0.5,-0.5 0.5,0 4.97,3.39 7.93,9.71 2.53,5.47 3.12,11 3.12,15.19 z"
           inkscape:connector-curvature="0"
           style="fill:#b2b150;fill-opacity:1;stroke-width:0" /><path
           id="path11778"
           d="m 669.98,422.5 0.14,0 0.15,0 0.14,0 0.08,0.01 0.07,0 0.07,0.01 0.07,0.01 0.07,0.01 0.07,0.01 0.07,0.01 0.07,0.02 0.06,0.02 0.06,0.02 0.06,0.02 0.06,0.03 0.06,0.03 0.05,0.04 0.05,0.03 0.05,0.05 0.04,0.04 0.04,0.05 0.02,0.03 0.02,0.03 0.01,0.02 0.02,0.03 0.01,0.03 0.02,0.04 0.01,0.03 0.01,0.04 0.01,0.03 0.01,0.04 0.01,0.04 0,0.04 0.01,0.04 0,0.04 0,0.04 0,0.05 c 0,1 -0.95,1 -1.64,1 h -29.84 c -0.71,0 -1.64,0 -1.64,-1 0,-0.98 0.93,-0.98 1.68,-0.98 z"
           inkscape:connector-curvature="0"
           style="fill:#b2b150;fill-opacity:1;stroke-width:0" /><path
           id="path11780"
           d="m 670.03,412.82 0.07,0 0.06,0 0.14,0.01 0.14,0 0.07,0 0.07,0.01 0.07,0.01 0.07,0 0.06,0.01 0.07,0.02 0.07,0.01 0.06,0.02 0.07,0.02 0.06,0.02 0.06,0.02 0.06,0.03 0.05,0.03 0.05,0.04 0.05,0.04 0.05,0.04 0.04,0.05 0.02,0.02 0.02,0.03 0.02,0.02 0.02,0.03 0.01,0.03 0.02,0.03 0.01,0.03 0.02,0.03 0.01,0.04 0.01,0.03 0.01,0.04 0.01,0.04 0.01,0.04 0,0.04 0.01,0.04 0,0.04 0,0.05 0,0.04 c 0,1 -0.95,1 -1.69,1 h -29.75 c -0.75,0 -1.68,0 -1.68,-1 0,-1 0.93,-1 1.64,-1 z"
           inkscape:connector-curvature="0"
           style="fill:#b2b150;fill-opacity:1;stroke-width:0" /><path
           id="path11782"
           d="m 711.35,422.14 -0.01,0.74 -0.01,0.75 -0.02,0.75 -0.03,0.74 -0.04,0.75 -0.06,0.74 -0.08,0.74 -0.1,0.73 -0.11,0.73 -0.14,0.73 -0.16,0.72 -0.19,0.72 -0.22,0.72 -0.24,0.7 -0.28,0.7 -0.15,0.35 -0.16,0.34 c -2.28,4.8 -6.38,5.6 -8.47,5.6 -2.98,0 -6.63,-1.3 -8.67,-5.94 -1.6,-3.44 -1.85,-7.33 -1.85,-11.31 0,-3.74 0.21,-8.22 2.25,-12 2.14,-4.03 5.79,-5.03 8.22,-5.03 v 1.09 c -1.93,0 -4.89,1.25 -5.78,6.03 -0.55,2.98 -0.55,7.56 -0.55,10.52 0,3.18 0,6.46 0.41,9.15 0.94,5.94 4.67,6.38 5.92,6.38 1.64,0 4.94,-0.89 5.88,-5.83 0.5,-2.78 0.5,-6.58 0.5,-9.7 0,-3.75 0,-7.13 -0.55,-10.32 -0.75,-4.73 -3.59,-6.23 -5.83,-6.23 h 0 v -1.09 c 2.69,0 6.47,1.04 8.67,5.78 1.6,3.43 1.85,7.31 1.85,11.25 z"
           inkscape:connector-curvature="0"
           style="fill:#b2b150;fill-opacity:1;stroke-width:0" /></g>    </g>
    <path
       style="fill:none;stroke:#c8c500;stroke-width:2;stroke-miterlimit:4;stroke-opacity:1;stroke-dasharray:12, 2;stroke-dashoffset:0;marker-mid:none"
       d="m 334.46875,740.84375 c -6.53172,8.64608 -13.58258,16.98579 -20.34375,25.5 25.89289,11.26037 48.53381,32.16573 56.90625,59.6875 12.84793,33.91822 14.75054,75.26007 -5.9375,106.59375 -16.21456,23.2582 -45.23034,33.74475 -72.84278,34.10657 -44.91015,1.77692 -88.47289,-11.8557 -132.85102,-15.93015 -19.25223,-2.39976 -39.17394,-4.29302 -56.9937,-12.64517 -9.04326,10.43567 -18.70976,20.22762 -27.34375,31.0625 24.62797,18.2287 57.54204,15.58817 86.87133,14.07873 49.03857,-2.38995 98.47251,3.18487 147.25367,-3.07873 30.07553,-4.16745 61.95701,-16.57298 78.21875,-43.75 17.07138,-27.16898 16.15758,-61.27318 10.30069,-91.69869 -6.14972,-29.2528 -18.20834,-57.62808 -36.08194,-81.67631 -7.51421,-9.05472 -16.3212,-17.11434 -26.78125,-22.71875 l -0.375,0.46875 z"
       id="path9135-8-8-6"
       inkscape:connector-curvature="0" />
    <path
       style="fill:none;stroke:#00c800;stroke-width:2;stroke-miterlimit:4;stroke-opacity:1;stroke-dasharray:12, 2;stroke-dashoffset:0;marker-mid:none"
       d="m 230.74485,718.30221 c -65.30138,2.20797 -131.20082,31.01598 -171.75,83.03125 -17.694967,24.14421 -23.452175,54.8495 -21.352561,84.37356 1.339618,26.03725 8.325957,52.47751 24.727561,73.12644 7.82828,-9.67367 16.59628,-18.53744 24.09375,-28.59375 -23.687,-19.64413 -29.63233,-53.42188 -24.92108,-82.5837 3.9801,-27.88414 20.08044,-54.26779 44.85858,-68.26005 45.40472,-29.18976 102.3941,-36.89746 155.09363,-27.92838 12.25703,2.22754 24.3517,5.42376 36.03137,9.70963 6.99051,-9.07739 14.86218,-17.5711 21.4375,-26.90625 -27.71538,-11.98589 -58.09777,-16.44528 -88.21875,-15.96875 z"
       id="path9135-8-8-5-7"
       inkscape:connector-curvature="0" />
    <path
       style="fill:none;stroke:#c8c600;stroke-width:1px;stroke-linecap:butt;stroke-linejoin:miter;stroke-opacity:1;marker-end:url(#Arrow1LendQ)"
       d="m 230.4,982.31496 -15.69412,0"
       id="path12086"
       inkscape:connector-curvature="0" />
    <path
       style="fill:none;stroke:#c8c600;stroke-width:1px;stroke-linecap:butt;stroke-linejoin:miter;stroke-opacity:1;marker-end:url(#Arrow1LendQ)"
       d="m 191.43696,954.3365 15.14962,4.0981"
       id="path12086-7"
       inkscape:connector-curvature="0" />
    <path
       style="fill:none;stroke:#c8c600;stroke-width:1px;stroke-linecap:butt;stroke-linejoin:miter;stroke-opacity:1;marker-end:url(#Arrow1LendQ)"
       d="m 321.19642,758.22991 9.40796,-12.56168"
       id="path12086-0"
       inkscape:connector-curvature="0" />
    <path
       style="fill:none;stroke:#c8c600;stroke-width:1px;stroke-linecap:butt;stroke-linejoin:miter;stroke-opacity:1;marker-end:url(#Arrow1LendQ)"
       d="m 394.44001,831.22077 3.78028,15.23203"
       id="path12086-9"
       inkscape:connector-curvature="0" />
    <path
       style="fill:none;stroke:#c8c600;stroke-width:1px;stroke-linecap:butt;stroke-linejoin:miter;stroke-opacity:1;marker-end:url(#Arrow1LendQ)"
       d="m 379.35301,856.29056 -3.33708,-15.33524"
       id="path12086-3"
       inkscape:connector-curvature="0" />
    <path
       style="fill:none;stroke:#c8c600;stroke-width:1px;stroke-linecap:butt;stroke-linejoin:miter;stroke-opacity:1;marker-end:url(#Arrow1LendQ)"
       d="M 81.1401,962.34283 91.20656,950.30241"
       id="path12086-36"
       inkscape:connector-curvature="0" />
    <path
       style="fill:none;stroke:#00c800;stroke-width:1px;stroke-linecap:butt;stroke-linejoin:miter;stroke-opacity:1;marker-end:url(#Arrow1LendQJ)"
       d="m 316.13268,738.21384 -9.91594,12.16468"
       id="path12086-2-0"
       inkscape:connector-curvature="0" />
    <path
       style="fill:none;stroke:#00c800;stroke-width:1px;stroke-linecap:butt;stroke-linejoin:miter;stroke-opacity:1;marker-end:url(#Arrow1LendQJ)"
       d="m 83.73373,933.74278 -10.2794,11.85914"
       id="path12086-2-4"
       inkscape:connector-curvature="0" />
    <path
       style="fill:none;stroke:#00c800;stroke-width:1px;stroke-linecap:butt;stroke-linejoin:miter;stroke-opacity:1;marker-end:url(#Arrow1LendQJ)"
       d="m 37.604278,861.72827 2.066524,-15.55748"
       id="path12086-2-7"
       inkscape:connector-curvature="0" />
    <path
       style="fill:none;stroke:#00c800;stroke-width:1px;stroke-linecap:butt;stroke-linejoin:miter;stroke-opacity:1;marker-end:url(#Arrow1LendQJ)"
       d="m 61.5309,844.19872 -1.3407,15.63675"
       id="path12086-2-2"
       inkscape:connector-curvature="0" />
    <path
       style="fill:none;stroke:#00c800;stroke-width:1px;stroke-linecap:butt;stroke-linejoin:miter;stroke-opacity:1;marker-end:url(#Arrow1LendQJ)"
       d="m 231.03222,747.98763 -15.69412,0"
       id="path12086-2-6"
       inkscape:connector-curvature="0" />
    <path
       style="fill:none;stroke:#00c800;stroke-width:1px;stroke-linecap:butt;stroke-linejoin:miter;stroke-opacity:1;marker-end:url(#Arrow1LendQJ)"
       d="m 226.61064,718.67902 15.69412,0"
       id="path12086-2-01"
       inkscape:connector-curvature="0" />
    <g
       transform="translate(185.51384,834.81227)"
       id="g12838">
      <g
         style="font-style:normal;font-variant:normal;font-weight:normal;font-stretch:normal;letter-spacing:normal;word-spacing:normal;text-anchor:start;fill:none;stroke:#000000;stroke-linecap:butt;stroke-linejoin:miter;stroke-miterlimit:10.43299961;stroke-opacity:1;stroke-dasharray:none;stroke-dashoffset:0"
         id="g12840"
         transform="matrix(0.53149606,0,0,-0.53149606,-93.01181,393.30707)"
         xml:space="preserve"
         stroke-miterlimit="10.433"
         font-style="normal"
         font-variant="normal"
         font-weight="normal"
         font-stretch="normal"
         font-size-adjust="none"
         letter-spacing="normal"
         word-spacing="normal"><path
           style="fill:#000000;stroke-width:0"
           inkscape:connector-curvature="0"
           d="m 487.16,435 0.1,0.37 0.05,0.19 0.06,0.18 0.06,0.17 0.07,0.17 0.07,0.17 0.08,0.16 0.08,0.16 0.1,0.16 0.09,0.15 0.11,0.14 0.11,0.14 0.13,0.14 0.13,0.12 0.14,0.13 0.15,0.12 0.17,0.11 0.17,0.11 0.19,0.1 0.19,0.09 0.21,0.09 0.23,0.08 0.23,0.08 0.26,0.07 0.26,0.06 0.28,0.06 0.3,0.04 0.31,0.05 0.33,0.03 0.35,0.03 0.18,0.01 0.19,0 c 0.25,0 0.84,0.05 0.84,1 0,0.05 0,0.55 -0.64,0.55 -1.64,0 -3.39,-0.16 -5.08,-0.16 -1.7,0 -3.55,0.16 -5.19,0.16 -0.29,0 -0.89,0 -0.89,-1 0,-0.55 0.5,-0.55 0.89,-0.55 2.85,-0.04 3.39,-1.09 3.39,-2.18 0,-0.16 -0.11,-0.91 -0.15,-1.05 l -4.49,-17.8 c -1.68,-6.67 -7.42,-11 -12.4,-11 -3.38,0 -6.08,2.19 -6.08,6.47 0,0.11 0,1.7 0.55,3.89 l 4.84,19.38 c 0.44,1.79 0.55,2.29 4.19,2.29 1.28,0 1.68,0 1.68,1 0,0.55 -0.54,0.55 -0.7,0.55 -1.39,0 -4.98,-0.16 -6.37,-0.16 -1.44,0 -4.99,0.16 -6.43,0.16 -0.4,0 -0.95,0 -0.95,-1 0,-0.55 0.45,-0.55 1.41,-0.55 0.09,0 1.04,0 1.89,-0.09 0.89,-0.11 1.34,-0.16 1.34,-0.8 0,-0.31 -0.55,-2.39 -0.84,-3.54 l -1.11,-4.38 c -0.44,-1.95 -2.83,-11.36 -3.03,-12.31 -0.35,-1.39 -0.35,-2.14 -0.35,-2.89 0,-6.08 4.53,-9.56 9.77,-9.56 6.26,0 12.45,5.62 14.09,12.2 z"
           id="path12842" /></g>    </g>
    <g
       transform="translate(102.98766,832.81369)"
       id="g3187"
       style="fill:#0000ff;fill-opacity:1">
      <g
         style="font-style:normal;font-variant:normal;font-weight:normal;font-stretch:normal;letter-spacing:normal;word-spacing:normal;text-anchor:start;fill:#0000ff;stroke:#000000;stroke-linecap:butt;stroke-linejoin:miter;stroke-miterlimit:10.43299960999999954;stroke-opacity:1;stroke-dasharray:none;stroke-dashoffset:0;fill-opacity:1"
         word-spacing="normal"
         letter-spacing="normal"
         font-size-adjust="none"
         font-stretch="normal"
         font-weight="normal"
         font-variant="normal"
         font-style="normal"
         stroke-miterlimit="10.433"
         xml:space="preserve"
         transform="matrix(0.53149606,0,0,-0.53149606,-93.01181,393.30707)"
         id="g3189"><path
           style="fill:#0000ff;stroke-width:0;fill-opacity:1"
           inkscape:connector-curvature="0"
           id="path3191"
           d="m 478.54,423.09 0.02,0.1 0.02,0.11 0.03,0.12 0.03,0.11 0.03,0.12 0.03,0.12 0.06,0.25 0.06,0.25 0.06,0.25 0.06,0.24 0.06,0.25 0.03,0.11 0.03,0.12 0.03,0.11 0.02,0.11 0.03,0.1 0.02,0.1 0.02,0.1 0.02,0.09 0.02,0.08 0.02,0.08 0.01,0.07 0.01,0.06 0.01,0.06 0.01,0.05 0,0.04 0.01,0.03 c 0,0.91 -0.71,1.35 -1.46,1.35 -0.59,0 -1.48,-0.39 -1.83,-1.39 -0.15,-0.35 -2.5,-9.86 -2.84,-11.16 -0.36,-1.5 -0.45,-2.39 -0.45,-3.3 0,-0.54 0,-0.64 0.04,-0.89 -1.14,-2.64 -2.64,-4.18 -4.57,-4.18 -3.99,0 -3.99,3.68 -3.99,4.53 0,1.59 0.25,3.54 2.6,9.67 0.54,1.48 0.84,2.19 0.84,3.19 0,2.23 -1.64,4.07 -4.09,4.07 -4.74,0 -6.58,-7.21 -6.58,-7.67 0,-0.5 0.5,-0.5 0.61,-0.5 0.5,0 0.54,0.11 0.79,0.91 1.35,4.62 3.28,6.17 5.03,6.17 0.44,0 1.25,-0.05 1.25,-1.64 0,-1.25 -0.56,-2.64 -0.9,-3.48 -2.19,-5.88 -2.78,-8.18 -2.78,-10.07 0,-4.53 3.33,-6.28 7.06,-6.28 0.86,0 3.19,0 5.19,3.49 1.29,-3.19 4.73,-3.49 6.23,-3.49 3.74,0 5.92,3.14 7.22,6.13 1.69,3.89 3.28,10.56 3.28,12.95 0,2.75 -1.34,3.48 -2.19,3.48 -1.25,0 -2.48,-1.29 -2.48,-2.39 0,-0.64 0.3,-0.93 0.73,-1.34 0.55,-0.55 1.8,-1.84 1.8,-4.23 0,-1.69 -1.44,-6.58 -2.73,-9.11 -1.3,-2.64 -3.05,-4.39 -5.49,-4.39 -2.34,0 -3.69,1.5 -3.69,4.32 0,1.41 0.35,2.96 0.55,3.64 z" /><path
           style="fill:#0000ff;stroke-width:0;fill-opacity:1"
           inkscape:connector-curvature="0"
           id="path3193"
           d="m 502.83,420.92 0,0.04 0,0.04 0,0.05 0,0.04 0,0.03 0,0.04 0,0.04 0,0.03 0,0.04 -0.01,0.03 0,0.03 0,0.03 0,0.03 -0.01,0.03 0,0.03 0,0.02 -0.01,0.03 0,0.02 -0.01,0.03 0,0.02 -0.01,0.04 -0.02,0.04 -0.02,0.03 -0.02,0.03 -0.02,0.03 -0.02,0.03 -0.03,0.02 -0.03,0.02 -0.03,0.02 -0.04,0.01 -0.04,0.01 -0.05,0.02 -0.02,0 -0.02,0 -0.03,0.01 -0.03,0 -0.02,0.01 -0.03,0 -0.03,0 -0.03,0 -0.03,0 -0.04,0.01 -0.03,0 -0.04,0 -0.03,0 -0.04,0 -0.04,0 -0.04,0 -0.04,0 -0.05,0 -0.04,0 -0.04,0 c -2.24,-2.2 -5.4,-2.23 -6.83,-2.23 v -1.25 c 0.84,0 3.14,0 5.04,0.97 v -17.77 c 0,-1.16 0,-1.61 -3.48,-1.61 h -1.31 v -1.25 c 0.62,0.03 4.9,0.14 6.2,0.14 1.08,0 5.47,-0.11 6.23,-0.14 v 1.25 h -1.32 c -3.49,0 -3.49,0.45 -3.49,1.61 z" /></g>    </g>
    <g
       transform="translate(108.92926,562.47108)"
       id="g3643"
       style="fill:#4eb14e;fill-opacity:1">
      <g
         style="font-style:normal;font-variant:normal;font-weight:normal;font-stretch:normal;letter-spacing:normal;word-spacing:normal;text-anchor:start;fill:#4eb14e;stroke:#000000;stroke-linecap:butt;stroke-linejoin:miter;stroke-miterlimit:10.43299960999999954;stroke-opacity:1;stroke-dasharray:none;stroke-dashoffset:0;fill-opacity:1"
         word-spacing="normal"
         letter-spacing="normal"
         font-size-adjust="none"
         font-stretch="normal"
         font-weight="normal"
         font-variant="normal"
         font-style="normal"
         stroke-miterlimit="10.433"
         xml:space="preserve"
         transform="matrix(0.53149606,0,0,-0.53149606,-93.01181,393.30707)"
         id="g3645"><path
           style="fill:#4eb14e;stroke-width:0;fill-opacity:1"
           inkscape:connector-curvature="0"
           id="path3647"
           d="m 475,424.84 -0.13,-0.01 -0.12,-0.01 -0.13,-0.02 -0.12,-0.03 -0.12,-0.03 -0.12,-0.04 -0.11,-0.04 -0.11,-0.04 -0.11,-0.05 -0.1,-0.06 -0.1,-0.06 -0.1,-0.06 -0.09,-0.07 -0.09,-0.07 -0.09,-0.07 -0.08,-0.08 -0.08,-0.08 -0.07,-0.08 -0.07,-0.09 -0.06,-0.08 -0.06,-0.09 -0.06,-0.1 -0.05,-0.09 -0.04,-0.1 -0.04,-0.09 -0.04,-0.1 -0.03,-0.1 -0.02,-0.1 -0.02,-0.1 -0.02,-0.11 0,-0.1 -0.01,-0.1 c 0,-0.7 0.44,-1.44 1.55,-1.44 1.09,0 2.28,0.85 2.28,2.78 0,2.25 -2.14,4.28 -5.92,4.28 -6.58,0 -8.42,-5.07 -8.42,-7.26 0,-3.89 3.69,-4.64 5.12,-4.94 2.6,-0.5 5.19,-1.05 5.19,-3.78 0,-1.3 -1.14,-5.48 -7.12,-5.48 -0.71,0 -4.54,0 -5.69,2.64 1.9,-0.25 3.14,1.25 3.14,2.64 0,1.14 -0.8,1.75 -1.85,1.75 -1.29,0 -2.78,-1.05 -2.78,-3.3 0,-2.84 2.85,-4.83 7.13,-4.83 8.06,0 10.01,6.03 10.01,8.27 0,1.79 -0.95,3.04 -1.54,3.64 -1.35,1.39 -2.8,1.64 -4.99,2.09 -1.79,0.39 -3.78,0.75 -3.78,2.99 0,1.45 1.19,4.48 5.58,4.48 1.23,0 3.73,-0.34 4.48,-2.28 z" /><path
           style="fill:#4eb14e;stroke-width:0;fill-opacity:1"
           inkscape:connector-curvature="0"
           id="path3649"
           d="m 496.52,405.11 h -1.19 c -0.1,-0.77 -0.45,-2.83 -0.91,-3.18 -0.26,-0.2 -2.95,-0.2 -3.44,-0.2 h -6.42 c 3.66,3.23 4.88,4.2 6.97,5.84 2.58,2.07 4.99,4.22 4.99,7.54 0,4.21 -3.69,6.79 -8.16,6.79 -4.31,0 -7.25,-3.03 -7.25,-6.23 0,-1.78 1.5,-1.96 1.86,-1.96 0.83,0 1.84,0.6 1.84,1.85 0,0.62 -0.25,1.84 -2.06,1.84 1.08,2.47 3.45,3.24 5.09,3.24 3.49,0 5.3,-2.71 5.3,-5.53 0,-3.04 -2.16,-5.44 -3.28,-6.69 l -8.39,-8.3 c -0.36,-0.31 -0.36,-0.39 -0.36,-1.36 h 14.36 z" /></g>    </g>
    <g
       transform="translate(-13.863724,612.97464)"
       id="g3883"
       style="fill:#ff0000;fill-opacity:1">
      <g
         style="font-style:normal;font-variant:normal;font-weight:normal;font-stretch:normal;letter-spacing:normal;word-spacing:normal;text-anchor:start;fill:#ff0000;stroke:#000000;stroke-linecap:butt;stroke-linejoin:miter;stroke-miterlimit:10.43299960999999954;stroke-opacity:1;stroke-dasharray:none;stroke-dashoffset:0;fill-opacity:1"
         id="g3885"
         transform="matrix(0.53149606,0,0,-0.53149606,-93.01181,393.30707)"
         xml:space="preserve"
         stroke-miterlimit="10.433"
         font-style="normal"
         font-variant="normal"
         font-weight="normal"
         font-stretch="normal"
         font-size-adjust="none"
         letter-spacing="normal"
         word-spacing="normal"><path
           style="fill:#ff0000;stroke-width:0;fill-opacity:1"
           inkscape:connector-curvature="0"
           d="m 478.54,423.09 0.02,0.1 0.02,0.11 0.03,0.12 0.03,0.11 0.03,0.12 0.03,0.12 0.06,0.25 0.06,0.25 0.06,0.25 0.06,0.24 0.06,0.25 0.03,0.11 0.03,0.12 0.03,0.11 0.02,0.11 0.03,0.1 0.02,0.1 0.02,0.1 0.02,0.09 0.02,0.08 0.02,0.08 0.01,0.07 0.01,0.06 0.01,0.06 0.01,0.05 0,0.04 0.01,0.03 c 0,0.91 -0.71,1.35 -1.46,1.35 -0.59,0 -1.48,-0.39 -1.83,-1.39 -0.15,-0.35 -2.5,-9.86 -2.84,-11.16 -0.36,-1.5 -0.45,-2.39 -0.45,-3.3 0,-0.54 0,-0.64 0.04,-0.89 -1.14,-2.64 -2.64,-4.18 -4.57,-4.18 -3.99,0 -3.99,3.68 -3.99,4.53 0,1.59 0.25,3.54 2.6,9.67 0.54,1.48 0.84,2.19 0.84,3.19 0,2.23 -1.64,4.07 -4.09,4.07 -4.74,0 -6.58,-7.21 -6.58,-7.67 0,-0.5 0.5,-0.5 0.61,-0.5 0.5,0 0.54,0.11 0.79,0.91 1.35,4.62 3.28,6.17 5.03,6.17 0.44,0 1.25,-0.05 1.25,-1.64 0,-1.25 -0.56,-2.64 -0.9,-3.48 -2.19,-5.88 -2.78,-8.18 -2.78,-10.07 0,-4.53 3.33,-6.28 7.06,-6.28 0.86,0 3.19,0 5.19,3.49 1.29,-3.19 4.73,-3.49 6.23,-3.49 3.74,0 5.92,3.14 7.22,6.13 1.69,3.89 3.28,10.56 3.28,12.95 0,2.75 -1.34,3.48 -2.19,3.48 -1.25,0 -2.48,-1.29 -2.48,-2.39 0,-0.64 0.3,-0.93 0.73,-1.34 0.55,-0.55 1.8,-1.84 1.8,-4.23 0,-1.69 -1.44,-6.58 -2.73,-9.11 -1.3,-2.64 -3.05,-4.39 -5.49,-4.39 -2.34,0 -3.69,1.5 -3.69,4.32 0,1.41 0.35,2.96 0.55,3.64 z"
           id="path3887" /><path
           style="fill:#ff0000;stroke-width:0;fill-opacity:1"
           inkscape:connector-curvature="0"
           d="m 508.75,405.11 h -1.18 c -0.1,-0.77 -0.46,-2.83 -0.91,-3.18 -0.27,-0.2 -2.95,-0.2 -3.44,-0.2 h -6.42 c 3.66,3.23 4.88,4.2 6.97,5.84 2.58,2.07 4.98,4.22 4.98,7.54 0,4.21 -3.68,6.79 -8.15,6.79 -4.31,0 -7.25,-3.03 -7.25,-6.23 0,-1.78 1.5,-1.96 1.86,-1.96 0.83,0 1.84,0.6 1.84,1.85 0,0.62 -0.25,1.84 -2.06,1.84 1.08,2.47 3.45,3.24 5.09,3.24 3.49,0 5.3,-2.71 5.3,-5.53 0,-3.04 -2.16,-5.44 -3.28,-6.69 l -8.39,-8.3 c -0.36,-0.31 -0.36,-0.39 -0.36,-1.36 h 14.36 z"
           id="path3889" /></g>    </g>
    <g
       id="g4127"
       transform="translate(-48.523033,787.26146)"
       style="fill:#c8c600;fill-opacity:1">
      <g
         word-spacing="normal"
         letter-spacing="normal"
         font-size-adjust="none"
         font-stretch="normal"
         font-weight="normal"
         font-variant="normal"
         font-style="normal"
         stroke-miterlimit="10.433"
         xml:space="preserve"
         transform="matrix(0.53149606,0,0,-0.53149606,-93.01181,393.30707)"
         id="g4129"
         style="font-style:normal;font-variant:normal;font-weight:normal;font-stretch:normal;letter-spacing:normal;word-spacing:normal;text-anchor:start;fill:#c8c600;stroke:#000000;stroke-linecap:butt;stroke-linejoin:miter;stroke-miterlimit:10.43299960999999954;stroke-opacity:1;stroke-dasharray:none;stroke-dashoffset:0;fill-opacity:1"><path
           id="path4131"
           d="m 475,424.84 -0.13,-0.01 -0.12,-0.01 -0.13,-0.02 -0.12,-0.03 -0.12,-0.03 -0.12,-0.04 -0.11,-0.04 -0.11,-0.04 -0.11,-0.05 -0.1,-0.06 -0.1,-0.06 -0.1,-0.06 -0.09,-0.07 -0.09,-0.07 -0.09,-0.07 -0.08,-0.08 -0.08,-0.08 -0.07,-0.08 -0.07,-0.09 -0.06,-0.08 -0.06,-0.09 -0.06,-0.1 -0.05,-0.09 -0.04,-0.1 -0.04,-0.09 -0.04,-0.1 -0.03,-0.1 -0.02,-0.1 -0.02,-0.1 -0.02,-0.11 0,-0.1 -0.01,-0.1 c 0,-0.7 0.44,-1.44 1.55,-1.44 1.09,0 2.28,0.85 2.28,2.78 0,2.25 -2.14,4.28 -5.92,4.28 -6.58,0 -8.42,-5.07 -8.42,-7.26 0,-3.89 3.69,-4.64 5.12,-4.94 2.6,-0.5 5.19,-1.05 5.19,-3.78 0,-1.3 -1.14,-5.48 -7.12,-5.48 -0.71,0 -4.54,0 -5.69,2.64 1.9,-0.25 3.14,1.25 3.14,2.64 0,1.14 -0.8,1.75 -1.85,1.75 -1.29,0 -2.78,-1.05 -2.78,-3.3 0,-2.84 2.85,-4.83 7.13,-4.83 8.06,0 10.01,6.03 10.01,8.27 0,1.79 -0.95,3.04 -1.54,3.64 -1.35,1.39 -2.8,1.64 -4.99,2.09 -1.79,0.39 -3.78,0.75 -3.78,2.99 0,1.45 1.19,4.48 5.58,4.48 1.23,0 3.73,-0.34 4.48,-2.28 z"
           inkscape:connector-curvature="0"
           style="fill:#c8c600;stroke-width:0;fill-opacity:1" /><path
           id="path4133"
           d="m 490.59,420.92 0,0.04 0,0.04 0,0.05 0,0.04 0,0.03 0,0.04 0,0.04 0,0.03 0,0.04 0,0.03 -0.01,0.03 0,0.03 0,0.03 0,0.03 -0.01,0.03 0,0.02 -0.01,0.03 0,0.02 -0.01,0.03 0,0.02 -0.01,0.04 -0.02,0.04 -0.01,0.03 -0.02,0.03 -0.03,0.03 -0.02,0.03 -0.03,0.02 -0.03,0.02 -0.03,0.02 -0.04,0.01 -0.04,0.01 -0.04,0.02 -0.03,0 -0.02,0 -0.03,0.01 -0.02,0 -0.03,0.01 -0.03,0 -0.03,0 -0.03,0 -0.03,0 -0.04,0.01 -0.03,0 -0.04,0 -0.03,0 -0.04,0 -0.04,0 -0.04,0 -0.04,0 -0.04,0 -0.05,0 -0.04,0 c -2.24,-2.2 -5.39,-2.23 -6.83,-2.23 v -1.25 c 0.84,0 3.14,0 5.05,0.97 v -17.77 c 0,-1.16 0,-1.61 -3.49,-1.61 h -1.31 v -1.25 c 0.62,0.03 4.91,0.14 6.2,0.14 1.08,0 5.47,-0.11 6.24,-0.14 v 1.25 h -1.33 c -3.49,0 -3.49,0.45 -3.49,1.61 z"
           inkscape:connector-curvature="0"
           style="fill:#c8c600;stroke-width:0;fill-opacity:1" /></g>    </g>
  </g>
</svg>
